  0
SECTION
  2
HEADER
  9
$ACADVER
  1
AC1015
  9
$INSUNITS
 70
  4
  9
$ACADMAINTVER
 70
    20
  9
$DWGCODEPAGE
  3
ANSI_932
  9
$INSBASE
 10
0.0
 20
0.0
 30
0.0
  9
$EXTMIN
 10
0.0
 20
0.0
 30
0.0
  9
$EXTMAX
 10
21000.0
 20
14850.0
 30
0.0
  9
$PEXTMAX
 10
420.0
 20
297.0
 30
0.0
9
$LIMMIN
10
0.0
20
0.0
9
$LIMMAX
10
21000.0
20
14850.0
9
$ORTHOMODE
 70
     0
  9
$REGENMODE
 70
     1
  9
$FILLMODE
 70
     1
  9
$QTEXTMODE
 70
     0
  9
$MIRRTEXT
 70
     0
  9
$LTSCALE
 40
1.0
  9
$ATTMODE
 70
     1
  9
$TEXTSIZE
 40
0.2
  9
$TRACEWID
 40
0.05
  9
$TEXTSTYLE
  7
DIMSTANDARD
  9
$CLAYER
  8
0
  9
$CELTYPE
  6
Continuous
  9
$CECOLOR
 62
   256
  9
$CELTSCALE
 40
1.0
  9
$DISPSILH
 70
     0
  9
$DIMSCALE
 40
50.0
  9
$DIMASZ
 40
0.18
  9
$DIMEXO
 40
0.0625
  9
$DIMDLI
 40
0.38
  9
$DIMRND
 40
0.0
  9
$DIMDLE
 40
0.0
  9
$DIMEXE
 40
0.18
  9
$DIMTP
 40
0.0
  9
$DIMTM
 40
0.0
  9
$DIMTXT
 40
0.18
  9
$DIMCEN
 40
0.09
  9
$DIMTSZ
 40
0.0
  9
$DIMTOL
 70
     0
  9
$DIMLIM
 70
     0
  9
$DIMTIH
 70
     1
  9
$DIMTOH
 70
     1
  9
$DIMSE1
 70
     0
  9
$DIMSE2
 70
     0
  9
$DIMTAD
 70
     0
  9
$DIMZIN
 70
     0
  9
$DIMBLK
  1

  9
$DIMASO
 70
     1
  9
$DIMSHO
 70
     1
  9
$DIMPOST
  1

  9
$DIMAPOST
  1

  9
$DIMALT
 70
     0
  9
$DIMALTD
 70
     2
  9
$DIMALTF
 40
25.4
  9
$DIMLFAC
 40
1.0
  9
$DIMTOFL
 70
     0
  9
$DIMTVP
 40
0.0
  9
$DIMTIX
 70
     0
  9
$DIMSOXD
 70
     0
  9
$DIMSAH
 70
     0
  9
$DIMBLK1
  1

  9
$DIMBLK2
  1

  9
$DIMSTYLE
  2
Standard
  9
$DIMCLRD
 70
     0
  9
$DIMCLRE
 70
     0
  9
$DIMCLRT
 70
     0
  9
$DIMTFAC
 40
1.0
  9
$DIMGAP
 40
0.09
  9
$DIMJUST
 70
     0
  9
$DIMSD1
 70
     0
  9
$DIMSD2
 70
     0
  9
$DIMTOLJ
 70
     1
  9
$DIMTZIN
 70
     0
  9
$DIMALTZ
 70
     0
  9
$DIMALTTZ
 70
     0
  9
$DIMUPT
 70
     0
  9
$DIMDEC
 70
     4
  9
$DIMTDEC
 70
     4
  9
$DIMALTU
 70
     2
  9
$DIMALTTD
 70
     2
  9
$DIMTXSTY
  7
Standard
  9
$DIMAUNIT
 70
     0
  9
$DIMADEC
 70
     0
  9
$DIMALTRND
 40
0.0
  9
$DIMAZIN
 70
     0
  9
$DIMDSEP
 70
    46
  9
$DIMATFIT
 70
     3
  9
$DIMFRAC
 70
     0
  9
$DIMLDRBLK
  1

  9
$DIMLUNIT
 70
     2
  9
$DIMLWD
 70
    -2
  9
$DIMLWE
 70
    -2
  9
$DIMTMOVE
 70
     0
  9
$LUNITS
 70
     2
  9
$LUPREC
 70
     4
  9
$SKETCHINC
 40
0.1
  9
$FILLETRAD
 40
0.0
  9
$AUNITS
 70
     0
  9
$AUPREC
 70
     0
  9
$MENU
  1
.
  9
$ELEVATION
 40
0.0
  9
$PELEVATION
 40
0.0
  9
$THICKNESS
 40
0.0
  9
$LIMCHECK
 70
     0
  9
$CHAMFERA
 40
0.0
  9
$CHAMFERB
 40
0.0
  9
$CHAMFERC
 40
0.0
  9
$CHAMFERD
 40
0.0
  9
$SKPOLY
 70
     0
  9
$TDCREATE
 40
2459198.769561898
  9
$TDUCREATE
 40
2459198.394561898
  9
$TDUPDATE
 40
2459198.771185336
  9
$TDUUPDATE
 40
2459198.396185336
  9
$TDINDWG
 40
0.0014492593
  9
$TDUSRTIMER
 40
0.0014490856
  9
$USRTIMER
 70
     1
  9
$ANGBASE
 50
0.0
  9
$ANGDIR
 70
     0
  9
$PDMODE
 70
     0
  9
$PDSIZE
 40
0.0
  9
$PLINEWID
 40
0.0
  9
$SPLFRAME
 70
     0
  9
$SPLINETYPE
 70
     6
  9
$SPLINESEGS
 70
     8
  9
$HANDSEED
  5
327
  9
$SURFTAB1
 70
     6
  9
$SURFTAB2
 70
     6
  9
$SURFTYPE
 70
     6
  9
$SURFU
 70
     6
  9
$SURFV
 70
     6
  9
$UCSBASE
  2

  9
$UCSNAME
  2

  9
$UCSORG
 10
0.0
 20
0.0
 30
0.0
  9
$UCSXDIR
 10
1.0
 20
0.0
 30
0.0
  9
$UCSYDIR
 10
0.0
 20
1.0
 30
0.0
  9
$UCSORTHOREF
  2

  9
$UCSORTHOVIEW
 70
     0
  9
$UCSORGTOP
 10
0.0
 20
0.0
 30
0.0
  9
$UCSORGBOTTOM
 10
0.0
 20
0.0
 30
0.0
  9
$UCSORGLEFT
 10
0.0
 20
0.0
 30
0.0
  9
$UCSORGRIGHT
 10
0.0
 20
0.0
 30
0.0
  9
$UCSORGFRONT
 10
0.0
 20
0.0
 30
0.0
  9
$UCSORGBACK
 10
0.0
 20
0.0
 30
0.0
  9
$PUCSBASE
  2

  9
$PUCSNAME
  2

  9
$PUCSORG
 10
0.0
 20
0.0
 30
0.0
  9
$PUCSXDIR
 10
1.0
 20
0.0
 30
0.0
  9
$PUCSYDIR
 10
0.0
 20
1.0
 30
0.0
  9
$PUCSORTHOREF
  2

  9
$PUCSORTHOVIEW
 70
     0
  9
$PUCSORGTOP
 10
0.0
 20
0.0
 30
0.0
  9
$PUCSORGBOTTOM
 10
0.0
 20
0.0
 30
0.0
  9
$PUCSORGLEFT
 10
0.0
 20
0.0
 30
0.0
  9
$PUCSORGRIGHT
 10
0.0
 20
0.0
 30
0.0
  9
$PUCSORGFRONT
 10
0.0
 20
0.0
 30
0.0
  9
$PUCSORGBACK
 10
0.0
 20
0.0
 30
0.0
  9
$USERI1
 70
     0
  9
$USERI2
 70
     0
  9
$USERI3
 70
     0
  9
$USERI4
 70
     0
  9
$USERI5
 70
     0
  9
$USERR1
 40
0.0
  9
$USERR2
 40
0.0
  9
$USERR3
 40
0.0
  9
$USERR4
 40
0.0
  9
$USERR5
 40
0.0
  9
$WORLDVIEW
 70
     1
  9
$SHADEDGE
 70
     3
  9
$SHADEDIF
 70
    70
  9
$TILEMODE
 70
     1
  9
$MAXACTVP
 70
    64
  9
$PINSBASE
 10
0.0
 20
0.0
 30
0.0
  9
$PLIMCHECK
 70
     0
  9
$PEXTMIN
 10
0.0
 20
0.0
 30
0.0
  9
$PEXTMAX
 10
420.0
 20
297.0
 30
0.0
  9
$PLIMMIN
 10
0.0
 20
0.0
  9
$PLIMMAX
 10
420.0
 20
297.0
  9
$UNITMODE
 70
     0
  9
$VISRETAIN
 70
     1
  9
$PLINEGEN
 70
     0
  9
$PSLTSCALE
 70
     1
  9
$TREEDEPTH
 70
  3020
  9
$CMLSTYLE
  2
Standard
  9
$CMLJUST
 70
     0
  9
$CMLSCALE
 40
1.0
  9
$PROXYGRAPHICS
 70
     1
  9
$MEASUREMENT
 70
     0
  9
$CELWEIGHT
370
    -1
  9
$ENDCAPS
280
     0
  9
$JOINSTYLE
280
     0
  9
$LWDISPLAY
290
     0
  9
$HYPERLINKBASE
  1

  9
$STYLESHEET
  1

  9
$XEDIT
290
     1
  9
$CEPSNTYPE
380
     0
  9
$PSTYLEMODE
290
     1
  9
$FINGERPRINTGUID
  2
{68315CFD-F49C-40F0-8814-45FE33FC9483}
  9
$VERSIONGUID
  2
{D8A8B553-77FB-4109-8835-302D291E56A1}
  9
$EXTNAMES
290
     1
  9
$PSVPSCALE
 40
0.0
  9
$OLESTARTUP
290
     0
  0
ENDSEC
  0
SECTION
  2
TABLES
  0
TABLE
  2
LTYPE
  5
5
330
0
100
AcDbSymbolTable
 70
     1
  0
LTYPE
  5
28
330
5
100
AcDbSymbolTableRecord
100
AcDbLinetypeTableRecord
  2
ByBlock
 70
     0
  3

 72
    65
 73
     0
 40
0.0
  0
LTYPE
  5
29
330
5
100
AcDbSymbolTableRecord
100
AcDbLinetypeTableRecord
  2
ByLayer
 70
     0
  3

 72
    65
 73
     0
 40
0.0
  0
LTYPE
  5
2A
330
5
100
AcDbSymbolTableRecord
100
AcDbLinetypeTableRecord
  2
Continuous
 70
     0
  3
Solid line
 72
    65
 73
     0
 40
0.0
  0
ENDTAB
  0
TABLE
  2
LAYER
  5
2
330
0
100
AcDbSymbolTable
 70
     6
  0
LAYER
  5
25
330
2
100
AcDbSymbolTableRecord
100
AcDbLayerTableRecord
  2
0
 70
     0
 62
     7
  6
Continuous
370
    -3
390
F
  0
LAYER
  5
75
330
2
100
AcDbSymbolTableRecord
100
AcDbLayerTableRecord
  2
C-COL-COL1
 70
     0
 62
     7
  6
Continuous
370
    -3
390
F
347
46
  0
LAYER
  5
74
330
2
100
AcDbSymbolTableRecord
100
AcDbLayerTableRecord
  2
C-TTL-FRAM
 70
     0
 62
     7
  6
Continuous
370
    -3
390
F
347
46
  0
LAYER
  5
76
330
2
100
AcDbSymbolTableRecord
100
AcDbLayerTableRecord
  2
TRI
 70
     0
 62
     7
  6
Continuous
370
    -3
390
F
  0
LAYER
  5
77
330
2
100
AcDbSymbolTableRecord
100
AcDbLayerTableRecord
  2
LEN
 70
     0
 62
     7
  6
Continuous
370
    -3
390
F
  0
LAYER
  5
78
330
2
100
AcDbSymbolTableRecord
100
AcDbLayerTableRecord
  2
NUM
 70
     0
 62
     7
  6
Continuous
370
    -3
390
F
  0
ENDTAB
  0
TABLE
  2
STYLE
  5
3
330
0
100
AcDbSymbolTable
 70
     2
  0
STYLE
  5
26
330
3
100
AcDbSymbolTableRecord
100
AcDbTextStyleTableRecord
  2
Standard
 70
     0
 40
0.0
 41
1.0
 50
0.0
 71
     0
 42
0.2
  3

  4

1001
ACAD
1000
@MS Gothic
1071
    32817
  0
STYLE
  5
3B
330
3
100
AcDbSymbolTableRecord
100
AcDbTextStyleTableRecord
  2
DIMSTANDARD
 70
     0
 40
0.0
 41
1.0
 50
0.0
 71
     0
 42
0.2
  3

  4

1001
ACAD
1000
MS Gothic
1071
    32817
  0
ENDTAB
  0
TABLE
  2
VIEW
  5
6
330
0
100
AcDbSymbolTable
 70
     0
  0
ENDTAB
  0
TABLE
  2
UCS
  5
7
330
0
100
AcDbSymbolTable
 70
     0
  0
ENDTAB
  0
TABLE
  2
APPID
  5
9
330
0
100
AcDbSymbolTable
 70
     1
  0
APPID
  5
27
330
9
100
AcDbSymbolTableRecord
100
AcDbRegAppTableRecord
  2
ACAD
 70
     0
  0
ENDTAB
  0
TABLE
  2
DIMSTYLE
  5
A
330
0
100
AcDbSymbolTable
 70
     1
100
AcDbDimStyleTable
 71
     0
  0
DIMSTYLE
105
67
330
A
100
AcDbSymbolTableRecord
100
AcDbDimStyleTableRecord
  2
Standard
 70
     0
340
26
  0
ENDTAB
  0
TABLE
  2
BLOCK_RECORD
  5
1
330
0
100
AcDbSymbolTable
 70
     0
  0
BLOCK_RECORD
  5
36
330
1
100
AcDbSymbolTableRecord
100
AcDbBlockTableRecord
  2
*Model_Space
340
39
  0
BLOCK_RECORD
  5
32
330
1
100
AcDbSymbolTableRecord
100
AcDbBlockTableRecord
  2
*Paper_Space
340
35
  0
ENDTAB
  0
ENDSEC
  0
SECTION
  2
BLOCKS
  0
BLOCK
  5
37
330
36
100
AcDbEntity
  8
0
100
AcDbBlockBegin
  2
*Model_Space
 70
     0
 10
0.0
 20
0.0
 30
0.0
  3
*Model_Space
  1

  0
ENDBLK
  5
38
330
36
100
AcDbEntity
  8
0
100
AcDbBlockEnd
  0
BLOCK
  5
33
330
32
100
AcDbEntity
 67
     1
  8
0
100
AcDbBlockBegin
  2
*Paper_Space
 70
     0
 10
0.0
 20
0.0
 30
0.0
  3
*Paper_Space
  1

  0
ENDBLK
  5
34
330
32
100
AcDbEntity
 67
     1
  8
0
100
AcDbBlockEnd
  0
ENDSEC
  0
SECTION
  2
ENTITIES
  0
LINE
  5
256
330
36
100
AcDbEntity
  8
TRI
 62
7
100
AcDbLine
 10
0.0
 20
0.0
 30
0.0
 11
6000.0
 21
0.0
 31
0.0
  0
LINE
  5
257
330
36
100
AcDbEntity
  8
TRI
 62
7
100
AcDbLine
 10
6000.0
 20
0.0
 30
0.0
 11
2249.9999999999995
 21
-3307.1891388307376
 31
0.0
  0
LINE
  5
258
330
36
100
AcDbEntity
  8
TRI
 62
7
100
AcDbLine
 10
2249.9999999999995
 20
-3307.1891388307376
 30
0.0
 11
0.0
 21
0.0
 31
0.0
  0
LINE
  5
259
330
36
100
AcDbEntity
  8
TRI
 62
7
100
AcDbLine
 10
2249.9999999999995
 20
-3307.1891388307376
 30
0.0
 11
6000.0
 21
0.0
 31
0.0
  0
LINE
  5
260
330
36
100
AcDbEntity
  8
TRI
 62
7
100
AcDbLine
 10
6000.0
 20
0.0
 30
0.0
 11
5187.450786638752
 21
-3916.601048851672
 31
0.0
  0
LINE
  5
261
330
36
100
AcDbEntity
  8
TRI
 62
7
100
AcDbLine
 10
5187.450786638752
 20
-3916.601048851672
 30
0.0
 11
2249.9999999999995
 21
-3307.1891388307376
 31
0.0
  0
LINE
  5
262
330
36
100
AcDbEntity
  8
TRI
 62
7
100
AcDbLine
 10
0.0
 20
0.0
 30
0.0
 11
2249.9999999999995
 21
-3307.1891388307376
 31
0.0
  0
LINE
  5
263
330
36
100
AcDbEntity
  8
TRI
 62
7
100
AcDbLine
 10
2249.9999999999995
 20
-3307.1891388307376
 30
0.0
 11
-1204.9410750503084
 21
-2747.383665536468
 31
0.0
  0
LINE
  5
264
330
36
100
AcDbEntity
  8
TRI
 62
7
100
AcDbLine
 10
-1204.9410750503084
 20
-2747.383665536468
 30
0.0
 11
0.0
 21
0.0
 31
0.0
  0
LINE
  5
265
330
36
100
AcDbEntity
  8
TRI
 62
7
100
AcDbLine
 10
5187.450786638752
 20
-3916.601048851672
 30
0.0
 11
6000.0
 21
0.0
 31
0.0
  0
LINE
  5
266
330
36
100
AcDbEntity
  8
TRI
 62
7
100
AcDbLine
 10
6000.0
 20
0.0
 30
0.0
 11
7941.471248923004
 21
-2287.0700447527506
 31
0.0
  0
LINE
  5
267
330
36
100
AcDbEntity
  8
TRI
 62
7
100
AcDbLine
 10
7941.471248923004
 20
-2287.0700447527506
 30
0.0
 11
5187.450786638752
 21
-3916.601048851672
 31
0.0
  0
LINE
  5
268
330
36
100
AcDbEntity
  8
TRI
 62
7
100
AcDbLine
 10
0.0
 20
0.0
 30
0.0
 11
-1204.9410750503084
 21
-2747.383665536468
 31
0.0
  0
LINE
  5
269
330
36
100
AcDbEntity
  8
TRI
 62
7
100
AcDbLine
 10
-1204.9410750503084
 20
-2747.383665536468
 30
0.0
 11
-2948.007999380402
 21
-556.1014615959472
 31
0.0
  0
LINE
  5
270
330
36
100
AcDbEntity
  8
TRI
 62
7
100
AcDbLine
 10
-2948.007999380402
 20
-556.1014615959472
 30
0.0
 11
0.0
 21
0.0
 31
0.0
  0
LINE
  5
271
330
36
100
AcDbEntity
  8
TRI
 62
7
100
AcDbLine
 10
5187.450786638752
 20
-3916.601048851672
 30
0.0
 11
7941.471248923004
 21
-2287.0700447527506
 31
0.0
  0
LINE
  5
272
330
36
100
AcDbEntity
  8
TRI
 62
7
100
AcDbLine
 10
7941.471248923004
 20
-2287.0700447527506
 30
0.0
 11
7542.656905405323
 21
-4755.054469218303
 31
0.0
  0
LINE
  5
273
330
36
100
AcDbEntity
  8
TRI
 62
7
100
AcDbLine
 10
7542.656905405323
 20
-4755.054469218303
 30
0.0
 11
5187.450786638752
 21
-3916.601048851672
 31
0.0
  0
LINE
  5
274
330
36
100
AcDbEntity
  8
TRI
 62
7
100
AcDbLine
 10
-2948.007999380402
 20
-556.1014615959472
 30
0.0
 11
-1204.9410750503084
 21
-2747.383665536468
 31
0.0
  0
LINE
  5
275
330
36
100
AcDbEntity
  8
TRI
 62
7
100
AcDbLine
 10
-1204.9410750503084
 20
-2747.383665536468
 30
0.0
 11
-3388.3556269062574
 21
-3017.0146999959416
 31
0.0
  0
LINE
  5
276
330
36
100
AcDbEntity
  8
TRI
 62
7
100
AcDbLine
 10
-3388.3556269062574
 20
-3017.0146999959416
 30
0.0
 11
-2948.007999380402
 21
-556.1014615959472
 31
0.0
  0
TEXT
  5
277
330
36
100
AcDbEntity
  8
LEN
 62
7
100
AcDbText
 10
3000.0
 20
0.0
 30
0.0
 40
250.0
  1
6.00
 50
0.0
 72
1
 11
3000.0
 21
0.0
 31
0.0
100
AcDbText
 73
1
  0
TEXT
  5
278
330
36
100
AcDbEntity
  8
LEN
 62
7
100
AcDbText
 10
4125.0
 20
-1653.5945694153688
 30
0.0
 40
250.0
  1
5.00
 50
41.40962210927085
 72
1
 11
4125.0
 21
-1653.5945694153688
 31
0.0
100
AcDbText
 73
3
  0
TEXT
  5
279
330
36
100
AcDbEntity
  8
LEN
 62
7
100
AcDbText
 10
1124.9999999999998
 20
-1653.5945694153688
 30
0.0
 40
250.0
  1
4.00
 50
304.22886632781257
 72
1
 11
1124.9999999999998
 21
-1653.5945694153688
 31
0.0
100
AcDbText
 73
3
  0
TEXT
  5
280
330
36
100
AcDbEntity
  8
NUM
 62
5
100
AcDbText
 10
2750.0
 20
-1102.396379610246
 30
0.0
 40
250.0
  1
1
 50
0.0
 72
1
 11
2750.0
 21
-1102.396379610246
 31
0.0
100
AcDbText
 73
2
  0
TEXT
  5
281
330
36
100
AcDbEntity
  8
LEN
 62
7
100
AcDbText
 10
5593.725393319376
 20
-1958.300524425836
 30
0.0
 40
250.0
  1
4.00
 50
78.27951975511485
 72
1
 11
5593.725393319376
 21
-1958.300524425836
 31
0.0
100
AcDbText
 73
3
  0
TEXT
  5
282
330
36
100
AcDbEntity
  8
LEN
 62
7
100
AcDbText
 10
3718.725393319376
 20
-3611.895093841205
 30
0.0
 40
250.0
  1
3.00
 50
348.27951975511485
 72
1
 11
3718.725393319376
 21
-3611.895093841205
 31
0.0
100
AcDbText
 73
3
  0
TEXT
  5
283
330
36
100
AcDbEntity
  8
NUM
 62
5
100
AcDbText
 10
4479.150262212917
 20
-2407.9300625608034
 30
0.0
 40
250.0
  1
2
 50
0.0
 72
1
 11
4479.150262212917
 21
-2407.9300625608034
 31
0.0
100
AcDbText
 73
2
  0
TEXT
  5
284
330
36
100
AcDbEntity
  8
LEN
 62
7
100
AcDbText
 10
522.5294624748456
 20
-3027.286402183603
 30
0.0
 40
250.0
  1
3.50
 50
350.7963297700228
 72
1
 11
522.5294624748456
 21
-3027.286402183603
 31
0.0
100
AcDbText
 73
3
  0
TEXT
  5
285
330
36
100
AcDbEntity
  8
LEN
 62
7
100
AcDbText
 10
-602.4705375251542
 20
-1373.691832768234
 30
0.0
 40
250.0
  1
3.00
 50
66.31881758409287
 72
1
 11
-602.4705375251542
 21
-1373.691832768234
 31
0.0
100
AcDbText
 73
1
  0
TEXT
  5
286
330
36
100
AcDbEntity
  8
NUM
 62
5
100
AcDbText
 10
348.35297498323035
 20
-2018.1909347890687
 30
0.0
 40
250.0
  1
3
 50
0.0
 72
1
 11
348.35297498323035
 21
-2018.1909347890687
 31
0.0
100
AcDbText
 73
2
  0
TEXT
  5
287
330
36
100
AcDbEntity
  8
LEN
 62
7
100
AcDbText
 10
6970.735624461502
 20
-1143.5350223763753
 30
0.0
 40
250.0
  1
3.00
 50
310.3275994658684
 72
1
 11
6970.735624461502
 21
-1143.5350223763753
 31
0.0
100
AcDbText
 73
1
  0
TEXT
  5
288
330
36
100
AcDbEntity
  8
LEN
 62
7
100
AcDbText
 10
6564.461017780878
 20
-3101.8355468022114
 30
0.0
 40
250.0
  1
3.20
 50
30.612450093798337
 72
1
 11
6564.461017780878
 21
-3101.8355468022114
 31
0.0
100
AcDbText
 73
3
  0
TEXT
  5
289
330
36
100
AcDbEntity
  8
NUM
 62
5
100
AcDbText
 10
6376.307345187252
 20
-2067.8903645348078
 30
0.0
 40
250.0
  1
4
 50
0.0
 72
1
 11
6376.307345187252
 21
-2067.8903645348078
 31
0.0
100
AcDbText
 73
2
  0
TEXT
  5
290
330
36
100
AcDbEntity
  8
LEN
 62
7
100
AcDbText
 10
-2076.474537215355
 20
-1651.7425635662075
 30
0.0
 40
250.0
  1
2.80
 50
308.50067829943896
 72
1
 11
-2076.474537215355
 21
-1651.7425635662075
 31
0.0
100
AcDbText
 73
3
  0
TEXT
  5
291
330
36
100
AcDbEntity
  8
LEN
 62
7
100
AcDbText
 10
-1474.003999690201
 20
-278.0507307979736
 30
0.0
 40
250.0
  1
3.00
 50
10.682539014784993
 72
1
 11
-1474.003999690201
 21
-278.0507307979736
 31
0.0
100
AcDbText
 73
1
  0
TEXT
  5
292
330
36
100
AcDbEntity
  8
NUM
 62
5
100
AcDbText
 10
-1384.3163581435701
 20
-1101.1617090441384
 30
0.0
 40
250.0
  1
5
 50
0.0
 72
1
 11
-1384.3163581435701
 21
-1101.1617090441384
 31
0.0
100
AcDbText
 73
2
  0
TEXT
  5
293
330
36
100
AcDbEntity
  8
LEN
 62
7
100
AcDbText
 10
7742.064077164164
 20
-3521.062256985527
 30
0.0
 40
250.0
  1
2.50
 50
80.82063059424108
 72
1
 11
7742.064077164164
 21
-3521.062256985527
 31
0.0
100
AcDbText
 73
3
  0
TEXT
  5
294
330
36
100
AcDbEntity
  8
LEN
 62
7
100
AcDbText
 10
6365.053846022038
 20
-4335.827759034988
 30
0.0
 40
250.0
  1
2.50
 50
340.40426959335554
 72
1
 11
6365.053846022038
 21
-4335.827759034988
 31
0.0
100
AcDbText
 73
3
  0
TEXT
  5
295
330
36
100
AcDbEntity
  8
NUM
 62
5
100
AcDbText
 10
6890.526313655693
 20
-3652.908520940908
 30
0.0
 40
250.0
  1
6
 50
0.0
 72
1
 11
6890.526313655693
 21
-3652.908520940908
 31
0.0
100
AcDbText
 73
2
  0
TEXT
  5
296
330
36
100
AcDbEntity
  8
LEN
 62
7
100
AcDbText
 10
-2296.648350978283
 20
-2882.199182766205
 30
0.0
 40
250.0
  1
2.20
 50
7.0398452540339775
 72
1
 11
-2296.648350978283
 21
-2882.199182766205
 31
0.0
100
AcDbText
 73
3
  0
TEXT
  5
297
330
36
100
AcDbEntity
  8
LEN
 62
7
100
AcDbText
 10
-3168.1818131433297
 20
-1786.5580807959443
 30
0.0
 40
250.0
  1
2.50
 50
79.85504935294648
 72
1
 11
-3168.1818131433297
 21
-1786.5580807959443
 31
0.0
100
AcDbText
 73
1
  0
TEXT
  5
298
330
36
100
AcDbEntity
  8
NUM
 62
5
100
AcDbText
 10
-2513.7682337789893
 20
-2106.833275709452
 30
0.0
 40
250.0
  1
7
 50
0.0
 72
1
 11
-2513.7682337789893
 21
-2106.833275709452
 31
0.0
100
AcDbText
 73
2
  0
CIRCLE
  5
299
330
36
100
AcDbEntity
  8
NUM
 62
5
100
AcDbCircle
 10
2750.0
 20
-1102.396379610246
 30
0.0
 40
200.0
  0
CIRCLE
  5
300
330
36
100
AcDbEntity
  8
NUM
 62
5
100
AcDbCircle
 10
4479.150262212917
 20
-2407.9300625608034
 30
0.0
 40
200.0
  0
CIRCLE
  5
301
330
36
100
AcDbEntity
  8
NUM
 62
5
100
AcDbCircle
 10
348.35297498323035
 20
-2018.1909347890687
 30
0.0
 40
200.0
  0
CIRCLE
  5
302
330
36
100
AcDbEntity
  8
NUM
 62
5
100
AcDbCircle
 10
6376.307345187252
 20
-2067.8903645348078
 30
0.0
 40
200.0
  0
CIRCLE
  5
303
330
36
100
AcDbEntity
  8
NUM
 62
5
100
AcDbCircle
 10
-1384.3163581435701
 20
-1101.1617090441384
 30
0.0
 40
200.0
  0
CIRCLE
  5
304
330
36
100
AcDbEntity
  8
NUM
 62
5
100
AcDbCircle
 10
6890.526313655693
 20
-3652.908520940908
 30
0.0
 40
200.0
  0
CIRCLE
  5
305
330
36
100
AcDbEntity
  8
NUM
 62
5
100
AcDbCircle
 10
-2513.7682337789893
 20
-2106.833275709452
 30
0.0
 40
200.0
  0
ENDSEC
  0
SECTION
  2
OBJECTS
  0
DICTIONARY
  5
C
330
0
100
AcDbDictionary
281
1
  3
ACAD_COLOR
350
306
  3
ACAD_GROUP
350
307
  3
ACAD_LAYOUT
350
308
  3
ACAD_MATERIAL
350
309
  3
ACAD_MLINESTYLE
350
310
  3
ACAD_PLOTSETTINGS
350
311
  3
ACAD_PLOTSTYLENAME
350
312
  3
ACAD_TABLESTYLE
350
313
  3
ACAD_VISUALSTYLE
350
314
  3
AcDbVariableDictionary
350
315
  3
DWGPROPS
350
316
  0
DICTIONARY
  5
306
102
{ACAD_REACTORS
330
C
102
}
330
C
100
AcDbDictionary
281
1
  0
DICTIONARY
  5
307
102
{ACAD_REACTORS
330
C
102
}
330
C
100
AcDbDictionary
281
1
  0
DICTIONARY
  5
308
102
{ACAD_REACTORS
330
C
102
}
330
C
100
AcDbDictionary
281
1
  3
Model
350
39
  3
Layout1
350
35
  0
DICTIONARY
  5
309
102
{ACAD_REACTORS
330
C
102
}
330
C
100
AcDbDictionary
281
1
  3
ByBlock
350
318
  3
ByLayer
350
319
  3
Global
350
320
  0
DICTIONARY
  5
310
102
{ACAD_REACTORS
330
C
102
}
330
C
100
AcDbDictionary
281
1
  0
DICTIONARY
  5
311
102
{ACAD_REACTORS
330
C
102
}
330
C
100
AcDbDictionary
281
1
  3
A3_1_50
350
317
  0
ACDBDICTIONARYWDFLT
  5
312
102
{ACAD_REACTORS
330
C
102
}
330
C
100
AcDbDictionary
281
1
  3
Normal
350
326
100
AcDbDictionaryWithDefault
340
326
  0
DICTIONARY
  5
313
102
{ACAD_REACTORS
330
C
102
}
330
C
100
AcDbDictionary
281
1
  0
DICTIONARY
  5
314
102
{ACAD_REACTORS
330
C
102
}
330
C
100
AcDbDictionary
281
1
  3
2dWireframe
350
321
  3
3D Hidden
350
323
  3
3dWireframe
350
322
  3
Conceptual
350
325
  3
Realistic
350
324
  0
DICTIONARY
  5
315
102
{ACAD_REACTORS
330
C
102
}
330
C
100
AcDbDictionary
281
1
  0
DICTIONARY
  5
316
102
{ACAD_REACTORS
330
C
102
}
330
C
100
AcDbDictionary
281
1
  0
MATERIAL
  5
318
102
{ACAD_REACTORS
330
309
102
}
330
309
100
AcDbMaterial
  1
ByBlock
 72
1
 94
127
282
1
  0
MATERIAL
  5
319
102
{ACAD_REACTORS
330
309
102
}
330
309
100
AcDbMaterial
  1
ByLayer
 72
1
 94
127
282
1
  0
MATERIAL
  5
320
102
{ACAD_REACTORS
330
309
102
}
330
309
100
AcDbMaterial
  1
Global
 72
1
 94
127
282
1
  0
VISUALSTYLE
  5
321
102
{ACAD_REACTORS
330
314
102
}
330
314
100
AcDbVisualStyle
  2
2dWireframe
 70
6
177
2
291
0
 71
2
176
1
293
1
 73
0
173
0
290
0
174
0
292
0
175
1
  0
VISUALSTYLE
  5
322
102
{ACAD_REACTORS
330
314
102
}
330
314
100
AcDbVisualStyle
  2
3dWireframe
 70
4
177
2
291
0
 71
2
176
1
293
1
 73
0
173
0
290
0
174
0
292
0
175
1
  0
VISUALSTYLE
  5
323
102
{ACAD_REACTORS
330
314
102
}
330
314
100
AcDbVisualStyle
  2
3D Hidden
 70
6
177
2
291
0
 71
2
176
1
293
1
 73
0
173
0
290
0
174
0
292
0
175
1
  0
VISUALSTYLE
  5
324
102
{ACAD_REACTORS
330
314
102
}
330
314
100
AcDbVisualStyle
  2
Realistic
 70
8
177
2
291
0
 71
2
176
1
293
1
 73
0
173
0
290
0
174
0
292
0
175
1
  0
VISUALSTYLE
  5
325
102
{ACAD_REACTORS
330
314
102
}
330
314
100
AcDbVisualStyle
  2
Conceptual
 70
9
177
2
291
0
 71
2
176
1
293
1
 73
0
173
0
290
0
174
0
292
0
175
1
  0
PLOTSTYLE
  5
326
102
{ACAD_REACTORS
330
312
102
}
330
312
100
AcDbPlotStyle
  1
Normal
 70
0
290
1
  0
PLOTSETTINGS
  5
317
102
{ACAD_REACTORS
330
311
102
}
330
311
100
AcDbPlotSettings
  1
A3_1_50
  2
none_device
  4
ISO_A3_(297.00_x_420.00_MM)
  6

 40
0.0
 41
0.0
 42
0.0
 43
0.0
 44
297.0
 45
420.0
 46
0.0
 47
0.0
 48
0.0
 49
0.0
140
0.0
141
0.0
142
1.0
143
50.0
 70
676
 72
1
 73
1
 74
5
  7

 75
16
 76
0
 77
2
 78
300
147
1.0
148
0.0
149
0.0
  0
LAYOUT
  5
39
102
{ACAD_REACTORS
330
308
102
}
330
308
100
AcDbPlotSettings
  1

  2
none_device
  4

  6

 40
0.0
 41
0.0
 42
0.0
 43
0.0
 44
0.0
 45
0.0
 46
0.0
 47
0.0
 48
0.0
 49
0.0
140
0.0
141
0.0
142
1.0
143
1.0
 70
1712
 72
0
 73
0
 74
0
  7

 75
0
 76
0
 77
2
 78
300
147
1.0
148
0.0
149
0.0
100
AcDbLayout
  1
Model
 70
1
 71
0
 10
0.0
 20
0.0
 11
21000.0
 21
14850.0
 12
0.0
 22
0.0
 32
0.0
 14
0.0
 24
0.0
 34
0.0
 15
21000.0
 25
14850.0
 35
0.0
146
0.0
 13
0.0
 23
0.0
 33
0.0
 16
1.0
 26
0.0
 36
0.0
 17
0.0
 27
1.0
 37
0.0
 76
0
330
36
  0
LAYOUT
  5
35
102
{ACAD_REACTORS
330
308
102
}
330
308
100
AcDbPlotSettings
  1
A3_1_50
  2
none_device
  4
ISO_A3_(297.00_x_420.00_MM)
  6

 40
0.0
 41
0.0
 42
0.0
 43
0.0
 44
297.0
 45
420.0
 46
0.0
 47
0.0
 48
0.0
 49
0.0
140
0.0
141
0.0
142
1.0
143
50.0
 70
676
 72
1
 73
1
 74
5
  7

 75
16
 76
0
 77
2
 78
300
147
1.0
148
0.0
149
0.0
100
AcDbLayout
  1
Layout1
 70
1
 71
1
 10
0.0
 20
0.0
 11
420.0
 21
297.0
 12
0.0
 22
0.0
 32
0.0
 14
0.0
 24
0.0
 34
0.0
 15
420.0
 25
297.0
 35
0.0
146
0.0
 13
0.0
 23
0.0
 33
0.0
 16
1.0
 26
0.0
 36
0.0
 17
0.0
 27
1.0
 37
0.0
 76
0
330
32
340
317
  0
ENDSEC
  0
EOF
