 0
SECTION
  2
HEADER
  9
$ACADVER
  1
AC1015
  9
$INSUNITS
 70
  4
  9
$ACADMAINTVER
 70
    20
  9
$DWGCODEPAGE
  3
ANSI_932
  9
$INSBASE
 10
0.0
 20
0.0
 30
0.0
  9
$EXTMIN
 10
0.0
 20
0.0
 30
0.0
  9
$EXTMAX
 10
21000.0
 20
14850.0
 30
0.0
  9
$PEXTMAX
 10
420.0
 20
297.0
 30
0.0
9
$LIMMIN
10
0.0
20
0.0
9
$LIMMAX
10
21000.0
20
14850.0
9
$ORTHOMODE
 70
     0
  9
$REGENMODE
 70
     1
  9
$FILLMODE
 70
     1
  9
$QTEXTMODE
 70
     0
  9
$MIRRTEXT
 70
     0
  9
$LTSCALE
 40
1.0
  9
$ATTMODE
 70
     1
  9
$TEXTSIZE
 40
0.2
  9
$TRACEWID
 40
0.05
  9
$TEXTSTYLE
  7
DIMSTANDARD
  9
$CLAYER
  8
0
  9
$CELTYPE
  6
Continuous
  9
$CECOLOR
 62
   256
  9
$CELTSCALE
 40
1.0
  9
$DISPSILH
 70
     0
  9
$DIMSCALE
 40
50.0
  9
$DIMASZ
 40
0.18
  9
$DIMEXO
 40
0.0625
  9
$DIMDLI
 40
0.38
  9
$DIMRND
 40
0.0
  9
$DIMDLE
 40
0.0
  9
$DIMEXE
 40
0.18
  9
$DIMTP
 40
0.0
  9
$DIMTM
 40
0.0
  9
$DIMTXT
 40
0.18
  9
$DIMCEN
 40
0.09
  9
$DIMTSZ
 40
0.0
  9
$DIMTOL
 70
     0
  9
$DIMLIM
 70
     0
  9
$DIMTIH
 70
     1
  9
$DIMTOH
 70
     1
  9
$DIMSE1
 70
     0
  9
$DIMSE2
 70
     0
  9
$DIMTAD
 70
     0
  9
$DIMZIN
 70
     0
  9
$DIMBLK
  1

  9
$DIMASO
 70
     1
  9
$DIMSHO
 70
     1
  9
$DIMPOST
  1

  9
$DIMAPOST
  1

  9
$DIMALT
 70
     0
  9
$DIMALTD
 70
     2
  9
$DIMALTF
 40
25.4
  9
$DIMLFAC
 40
1.0
  9
$DIMTOFL
 70
     0
  9
$DIMTVP
 40
0.0
  9
$DIMTIX
 70
     0
  9
$DIMSOXD
 70
     0
  9
$DIMSAH
 70
     0
  9
$DIMBLK1
  1

  9
$DIMBLK2
  1

  9
$DIMSTYLE
  2
Standard
  9
$DIMCLRD
 70
     0
  9
$DIMCLRE
 70
     0
  9
$DIMCLRT
 70
     0
  9
$DIMTFAC
 40
1.0
  9
$DIMGAP
 40
0.09
  9
$DIMJUST
 70
     0
  9
$DIMSD1
 70
     0
  9
$DIMSD2
 70
     0
  9
$DIMTOLJ
 70
     1
  9
$DIMTZIN
 70
     0
  9
$DIMALTZ
 70
     0
  9
$DIMALTTZ
 70
     0
  9
$DIMUPT
 70
     0
  9
$DIMDEC
 70
     4
  9
$DIMTDEC
 70
     4
  9
$DIMALTU
 70
     2
  9
$DIMALTTD
 70
     2
  9
$DIMTXSTY
  7
Standard
  9
$DIMAUNIT
 70
     0
  9
$DIMADEC
 70
     0
  9
$DIMALTRND
 40
0.0
  9
$DIMAZIN
 70
     0
  9
$DIMDSEP
 70
    46
  9
$DIMATFIT
 70
     3
  9
$DIMFRAC
 70
     0
  9
$DIMLDRBLK
  1

  9
$DIMLUNIT
 70
     2
  9
$DIMLWD
 70
    -2
  9
$DIMLWE
 70
    -2
  9
$DIMTMOVE
 70
     0
  9
$LUNITS
 70
     2
  9
$LUPREC
 70
     4
  9
$SKETCHINC
 40
0.1
  9
$FILLETRAD
 40
0.0
  9
$AUNITS
 70
     0
  9
$AUPREC
 70
     0
  9
$MENU
  1
.
  9
$ELEVATION
 40
0.0
  9
$PELEVATION
 40
0.0
  9
$THICKNESS
 40
0.0
  9
$LIMCHECK
 70
     0
  9
$CHAMFERA
 40
0.0
  9
$CHAMFERB
 40
0.0
  9
$CHAMFERC
 40
0.0
  9
$CHAMFERD
 40
0.0
  9
$SKPOLY
 70
     0
  9
$TDCREATE
 40
2459198.769561898
  9
$TDUCREATE
 40
2459198.394561898
  9
$TDUPDATE
 40
2459198.771185336
  9
$TDUUPDATE
 40
2459198.396185336
  9
$TDINDWG
 40
0.0014492593
  9
$TDUSRTIMER
 40
0.0014490856
  9
$USRTIMER
 70
     1
  9
$ANGBASE
 50
0.0
  9
$ANGDIR
 70
     0
  9
$PDMODE
 70
     0
  9
$PDSIZE
 40
0.0
  9
$PLINEWID
 40
0.0
  9
$SPLFRAME
 70
     0
  9
$SPLINETYPE
 70
     6
  9
$SPLINESEGS
 70
     8
  9
$HANDSEED
  5
101
  9
$SURFTAB1
 70
     6
  9
$SURFTAB2
 70
     6
  9
$SURFTYPE
 70
     6
  9
$SURFU
 70
     6
  9
$SURFV
 70
     6
  9
$UCSBASE
  2

  9
$UCSNAME
  2

  9
$UCSORG
 10
0.0
 20
0.0
 30
0.0
  9
$UCSXDIR
 10
1.0
 20
0.0
 30
0.0
  9
$UCSYDIR
 10
0.0
 20
1.0
 30
0.0
  9
$UCSORTHOREF
  2

  9
$UCSORTHOVIEW
 70
     0
  9
$UCSORGTOP
 10
0.0
 20
0.0
 30
0.0
  9
$UCSORGBOTTOM
 10
0.0
 20
0.0
 30
0.0
  9
$UCSORGLEFT
 10
0.0
 20
0.0
 30
0.0
  9
$UCSORGRIGHT
 10
0.0
 20
0.0
 30
0.0
  9
$UCSORGFRONT
 10
0.0
 20
0.0
 30
0.0
  9
$UCSORGBACK
 10
0.0
 20
0.0
 30
0.0
  9
$PUCSBASE
  2

  9
$PUCSNAME
  2

  9
$PUCSORG
 10
0.0
 20
0.0
 30
0.0
  9
$PUCSXDIR
 10
1.0
 20
0.0
 30
0.0
  9
$PUCSYDIR
 10
0.0
 20
1.0
 30
0.0
  9
$PUCSORTHOREF
  2

  9
$PUCSORTHOVIEW
 70
     0
  9
$PUCSORGTOP
 10
0.0
 20
0.0
 30
0.0
  9
$PUCSORGBOTTOM
 10
0.0
 20
0.0
 30
0.0
  9
$PUCSORGLEFT
 10
0.0
 20
0.0
 30
0.0
  9
$PUCSORGRIGHT
 10
0.0
 20
0.0
 30
0.0
  9
$PUCSORGFRONT
 10
0.0
 20
0.0
 30
0.0
  9
$PUCSORGBACK
 10
0.0
 20
0.0
 30
0.0
  9
$USERI1
 70
     0
  9
$USERI2
 70
     0
  9
$USERI3
 70
     0
  9
$USERI4
 70
     0
  9
$USERI5
 70
     0
  9
$USERR1
 40
0.0
  9
$USERR2
 40
0.0
  9
$USERR3
 40
0.0
  9
$USERR4
 40
0.0
  9
$USERR5
 40
0.0
  9
$WORLDVIEW
 70
     1
  9
$SHADEDGE
 70
     3
  9
$SHADEDIF
 70
    70
  9
$TILEMODE
 70
     1
  9
$MAXACTVP
 70
    64
  9
$PINSBASE
 10
0.0
 20
0.0
 30
0.0
  9
$PLIMCHECK
 70
     0
  9
$PEXTMIN
 10
0.0
 20
0.0
 30
0.0
  9
$PEXTMAX
 10
420.0
 20
297.0
 30
0.0
  9
$PLIMMIN
 10
0.0
 20
0.0
  9
$PLIMMAX
 10
420.0
 20
297.0
  9
$UNITMODE
 70
     0
  9
$VISRETAIN
 70
     1
  9
$PLINEGEN
 70
     0
  9
$PSLTSCALE
 70
     1
  9
$TREEDEPTH
 70
  3020
  9
$CMLSTYLE
  2
Standard
  9
$CMLJUST
 70
     0
  9
$CMLSCALE
 40
1.0
  9
$PROXYGRAPHICS
 70
     1
  9
$MEASUREMENT
 70
     0
  9
$CELWEIGHT
370
    -1
  9
$ENDCAPS
280
     0
  9
$JOINSTYLE
280
     0
  9
$LWDISPLAY
290
     0
  9
$HYPERLINKBASE
  1

  9
$STYLESHEET
  1

  9
$XEDIT
290
     1
  9
$CEPSNTYPE
380
     0
  9
$PSTYLEMODE
290
     1
  9
$FINGERPRINTGUID
  2
{68315CFD-F49C-40F0-8814-45FE33FC9483}
  9
$VERSIONGUID
  2
{D8A8B553-77FB-4109-8835-302D291E56A1}
  9
$EXTNAMES
290
     1
  9
$PSVPSCALE
 40
0.0
  9
$OLESTARTUP
290
     0
0
ENDSEC
  0
SECTION
  2
TABLES
  0
TABLE
  2
LTYPE
  5
5
330
0
100
AcDbSymbolTable
 70
     1
  0
LTYPE
  5
28
330
5
100
AcDbSymbolTableRecord
100
AcDbLinetypeTableRecord
  2
ByBlock
 70
     0
  3

 72
    65
 73
     0
 40
0.0
  0
LTYPE
  5
29
330
5
100
AcDbSymbolTableRecord
100
AcDbLinetypeTableRecord
  2
ByLayer
 70
     0
  3

 72
    65
 73
     0
 40
0.0
  0
LTYPE
  5
2A
330
5
100
AcDbSymbolTableRecord
100
AcDbLinetypeTableRecord
  2
Continuous
 70
     0
  3
Solid line
 72
    65
 73
     0
 40
0.0
  0
ENDTAB
  0
TABLE
  2
LAYER
  5
2
330
0
100
AcDbSymbolTable
 70
     1
  0
LAYER
  5
25
330
2
100
AcDbSymbolTableRecord
100
AcDbLayerTableRecord
  2
0
 70
     0
 62
     7
  6
Continuous
370
    -3
390
F
  0
LAYER
  5
74
330
2
100
AcDbSymbolTableRecord
100
AcDbLayerTableRecord
  2
C-COL-COL1
 70
     0
 62
     7
  6
Continuous
370
    -3
390
F
347
46
  0
LAYER
  5
75
330
2
100
AcDbSymbolTableRecord
100
AcDbLayerTableRecord
  2
C-TTL-FRAM
 70
     0
 62
     7
  6
Continuous
370
    -3
390
F
347
46
  0
ENDTAB
  0
TABLE
  2
STYLE
  5
3
330
0
100
AcDbSymbolTable
 70
     2
  0
STYLE
  5
26
330
3
100
AcDbSymbolTableRecord
100
AcDbTextStyleTableRecord
  2
Standard
 70
     0
 40
0.0
 41
1.0
 50
0.0
 71
     0
 42
0.2
  3

  4

1001
ACAD
1000
@MS Gothic
1071
    32817
  0
STYLE
  5
3B
330
3
100
AcDbSymbolTableRecord
100
AcDbTextStyleTableRecord
  2
DIMSTANDARD
 70
     0
 40
0.0
 41
1.0
 50
0.0
 71
     0
 42
0.2
  3

  4

1001
ACAD
1000
MS Gothic
1071
    32817
  0
ENDTAB
  0
TABLE
  2
VIEW
  5
6
330
0
100
AcDbSymbolTable
 70
     0
  0
ENDTAB
  0
TABLE
  2
UCS
  5
7
330
0
100
AcDbSymbolTable
 70
     0
  0
ENDTAB
  0
TABLE
  2
APPID
  5
9
330
0
100
AcDbSymbolTable
 70
     1
  0
APPID
  5
27
330
9
100
AcDbSymbolTableRecord
100
AcDbRegAppTableRecord
  2
ACAD
 70
     0
  0
ENDTAB
  0
TABLE
  2
DIMSTYLE
  5
A
330
0
100
AcDbSymbolTable
 70
     1
100
AcDbDimStyleTable
 71
     0
  0
DIMSTYLE
105
67
330
A
100
AcDbSymbolTableRecord
100
AcDbDimStyleTableRecord
  2
Standard
 70
     0
340
26
  0
ENDTAB
  0
TABLE
  2
BLOCK_RECORD
  5
1
330
0
100
AcDbSymbolTable
 70
     0
  0
BLOCK_RECORD
  5
36
330
1
100
AcDbSymbolTableRecord
100
AcDbBlockTableRecord
  2
*Model_Space
340
39
  0
BLOCK_RECORD
  5
32
330
1
100
AcDbSymbolTableRecord
100
AcDbBlockTableRecord
  2
*Paper_Space
340
35
  0
ENDTAB
  0
ENDSEC
  0
SECTION
  2
BLOCKS
  0
BLOCK
  5
37
330
36
100
AcDbEntity
  8
0
100
AcDbBlockBegin
  2
*Model_Space
 70
     0
 10
0.0
 20
0.0
 30
0.0
  3
*Model_Space
  1

  0
ENDBLK
  5
38
330
36
100
AcDbEntity
  8
0
100
AcDbBlockEnd
  0
BLOCK
  5
33
330
32
100
AcDbEntity
 67
     1
  8
0
100
AcDbBlockBegin
  2
*Paper_Space
 70
     0
 10
0.0
 20
0.0
 30
0.0
  3
*Paper_Space
  1

  0
ENDBLK
  5
34
330
32
100
AcDbEntity
 67
     1
  8
0
100
AcDbBlockEnd
  0
ENDSEC
0
SECTION
2
ENTITIES
0
LINE
5
101
330
36
100
AcDbEntity
8
0
100
AcDbLine
370
-3
10
15500.0
20
5945.600005280698
30
0.0
11
5500.0
21
5945.6000052806985
31
0.0
62
256
0
LINE
5
102
330
36
100
AcDbEntity
8
0
100
AcDbLine
370
-3
10
5500.0
20
5945.6000052806985
30
0.0
11
5700.000000000001
21
7935.574879493939
31
0.0
62
256
0
LINE
5
103
330
36
100
AcDbEntity
8
0
100
AcDbLine
370
-3
10
5700.000000000001
20
7935.574879493939
30
0.0
11
15500.0
21
5945.600005280698
31
0.0
62
256
0
TEXT
5
104
330
36
100
AcDbEntity
8
0
62
256
100
AcDbText
10
10500.0
20
5945.600005280698
30
0.0
40
 250.0
1
 10.0
41
1.00
7
DimStandard
72
1
11
10500.0
21
5945.600005280698
31
0.0
50
360.0
51
0.0
100
AcDbText
73
3
0
TEXT
5
105
330
36
100
AcDbEntity
8
0
62
256
100
AcDbText
10
5600.000000000001
20
6940.587442387318
30
0.0
40
 250.0
1
 2.0
41
1.00
7
DimStandard
72
1
11
5600.000000000001
21
6940.587442387318
31
0.0
50
84.26082952273316
51
0.0
100
AcDbText
73
1
0
TEXT
5
106
330
36
100
AcDbEntity
8
0
62
256
100
AcDbText
10
10600.000000000002
20
6940.587442387318
30
0.0
40
 250.0
1
 10.0
41
1.00
7
DimStandard
72
1
11
10600.000000000002
21
6940.587442387318
31
0.0
50
348.52165904546644
51
0.0
100
AcDbText
73
3
0
CIRCLE
5
107
330
36
100
AcDbEntity
8
0
62
5
370
13
100
AcDbCircle
10
8900.000000000002
20
6608.9249633517775
30
0.0
40
212.5 
0
TEXT
5
108
330
36
100
AcDbEntity
8
0
62
5
100
AcDbText
10
8900.000000000002
20
6608.9249633517775
30
0.0
40
 250.0
1
1
41
1.00
7
DimStandard
72
1
11
8900.000000000002
21
6608.9249633517775
31
0.0
50
0.0
51
0.0
100
AcDbText
73
2
0
LINE
5
109
330
36
100
AcDbEntity
8
0
100
AcDbLine
370
-3
10
15500.0
20
5945.600005280698
30
0.0
11
5700.000237001195
21
7935.576046649879
31
0.0
62
256
0
LINE
5
110
330
36
100
AcDbEntity
8
0
100
AcDbLine
370
-3
10
5700.000237001195
20
7935.576046649879
30
0.0
11
5947.74893728642
21
8904.400376189027
31
0.0
62
256
0
LINE
5
111
330
36
100
AcDbEntity
8
0
100
AcDbLine
370
-3
10
5947.74893728642
20
8904.400376189027
30
0.0
11
15500.0
21
5945.600005280698
31
0.0
62
256
0
TEXT
5
112
330
36
100
AcDbEntity
8
0
62
256
100
AcDbText
10
5823.874587143808
20
8419.988211419453
30
0.0
40
 250.0
1
 1.0
41
1.00
7
DimStandard
72
1
11
5823.874587143808
21
8419.988211419453
31
0.0
50
75.65566823908077
51
0.0
100
AcDbText
73
1
0
TEXT
5
113
330
36
100
AcDbEntity
8
0
62
256
100
AcDbText
10
10723.87446864321
20
7425.000190734862
30
0.0
40
 250.0
1
 10.0
41
1.00
7
DimStandard
72
1
11
10723.87446864321
21
7425.000190734862
31
0.0
50
342.78968425648196
51
0.0
100
AcDbText
73
1
0
CIRCLE
5
114
330
36
100
AcDbEntity
8
0
62
5
370
13
100
AcDbCircle
10
9049.24972476254
20
7595.1921427065345
30
0.0
40
212.5 
0
TEXT
5
115
330
36
100
AcDbEntity
8
0
62
5
100
AcDbText
10
9049.24972476254
20
7595.1921427065345
30
0.0
40
 250.0
1
2
41
1.00
7
DimStandard
72
1
11
9049.24972476254
21
7595.1921427065345
31
0.0
50
0.0
51
0.0
100
AcDbText
73
2
0
LINE
5
116
330
36
100
AcDbEntity
8
C-TTL-FRAM
100
AcDbLine
370
-3
10
750.0
20
750.0
30
0.0
11
20250.0
21
750.0
31
0.0
62
256
0
LINE
5
117
330
36
100
AcDbEntity
8
C-TTL-FRAM
100
AcDbLine
370
-3
10
750.0
20
14100.000381469727
30
0.0
11
20250.0
21
14100.000381469727
31
0.0
62
256
0
LINE
5
118
330
36
100
AcDbEntity
8
C-TTL-FRAM
100
AcDbLine
370
-3
10
750.0
20
750.0
30
0.0
11
750.0
21
14100.000381469727
31
0.0
62
256
0
LINE
5
119
330
36
100
AcDbEntity
8
C-TTL-FRAM
100
AcDbLine
370
-3
10
20250.0
20
750.0
30
0.0
11
20250.0
21
14100.000381469727
31
0.0
62
256
0
LINE
5
120
330
36
100
AcDbEntity
8
C-TTL-FRAM
100
AcDbLine
370
-3
10
15250.0
20
3750.0
30
0.0
11
20250.0
21
3750.0
31
0.0
62
256
0
LINE
5
121
330
36
100
AcDbEntity
8
C-TTL-FRAM
100
AcDbLine
370
-3
10
15250.0
20
750.0
30
0.0
11
15250.0
21
3750.0
31
0.0
62
256
0
LINE
5
122
330
36
100
AcDbEntity
8
C-TTL-FRAM
100
AcDbLine
370
-3
10
16250.0
20
750.0
30
0.0
11
16250.0
21
3750.0
31
0.0
62
256
0
LINE
5
123
330
36
100
AcDbEntity
8
C-TTL-FRAM
100
AcDbLine
370
-3
10
15250.0
20
3250.0
30
0.0
11
20250.0
21
3250.0
31
0.0
62
256
0
LINE
5
124
330
36
100
AcDbEntity
8
C-TTL-FRAM
100
AcDbLine
370
-3
10
15250.0
20
2750.0
30
0.0
11
20250.0
21
2750.0
31
0.0
62
256
0
LINE
5
125
330
36
100
AcDbEntity
8
C-TTL-FRAM
100
AcDbLine
370
-3
10
15250.0
20
2250.0
30
0.0
11
20250.0
21
2250.0
31
0.0
62
256
0
LINE
5
126
330
36
100
AcDbEntity
8
C-TTL-FRAM
100
AcDbLine
370
-3
10
15250.0
20
1750.0
30
0.0
11
20250.0
21
1750.0
31
0.0
62
256
0
LINE
5
127
330
36
100
AcDbEntity
8
C-TTL-FRAM
100
AcDbLine
370
-3
10
15250.0
20
1250.0
30
0.0
11
20250.0
21
1250.0
31
0.0
62
256
0
LINE
5
128
330
36
100
AcDbEntity
8
C-TTL-FRAM
100
AcDbLine
370
-3
10
17750.0
20
1250.0
30
0.0
11
17750.0
21
1750.0
31
0.0
62
256
0
LINE
5
129
330
36
100
AcDbEntity
8
C-TTL-FRAM
100
AcDbLine
370
-3
10
18750.0
20
1250.0
30
0.0
11
18750.0
21
1750.0
31
0.0
62
256
0
TEXT
5
130
330
36
100
AcDbEntity
8
C-TTL-FRAM
62
256
100
AcDbText
10
15750.0
20
3424.999952316284
30
0.0
40
 125.0
1
ŹH Ä¢ ¢╝
41
1.00
7
DimStandard
72
1
11
15750.0
21
3424.999952316284
31
0.0
50
0.0
51
0.0
100
AcDbText
73
0
0
TEXT
5
131
330
36
100
AcDbEntity
8
C-TTL-FRAM
62
256
100
AcDbText
10
15750.0
20
2924.999952316284
30
0.0
40
 125.0
1
É} ¢╩ ¢╝
41
1.00
7
DimStandard
72
1
11
15750.0
21
2924.999952316284
31
0.0
50
0.0
51
0.0
100
AcDbText
73
0
0
TEXT
5
132
330
36
100
AcDbEntity
8
C-TTL-FRAM
62
256
100
AcDbText
10
15750.0
20
2424.999952316284
30
0.0
40
 125.0
1
śH É³ ¢╝
41
1.00
7
DimStandard
72
1
11
15750.0
21
2424.999952316284
31
0.0
50
0.0
51
0.0
100
AcDbText
73
0
0
TEXT
5
133
330
36
100
AcDbEntity
8
C-TTL-FRAM
62
256
100
AcDbText
10
15750.0
20
1924.9999523162842
30
0.0
40
 125.0
1
Źņ É¼ ō·
41
1.00
7
DimStandard
72
1
11
15750.0
21
1924.9999523162842
31
0.0
50
0.0
51
0.0
100
AcDbText
73
0
0
TEXT
5
134
330
36
100
AcDbEntity
8
C-TTL-FRAM
62
256
100
AcDbText
10
15750.0
20
1424.9999523162842
30
0.0
40
 125.0
1
Åk    Ä┌
41
1.00
7
DimStandard
72
1
11
15750.0
21
1424.9999523162842
31
0.0
50
0.0
51
0.0
100
AcDbText
73
0
0
TEXT
5
135
330
36
100
AcDbEntity
8
C-TTL-FRAM
62
256
100
AcDbText
10
18250.0
20
1424.9999523162842
30
0.0
40
 125.0
1
É}¢╩öįŹå
41
1.00
7
DimStandard
72
1
11
18250.0
21
1424.9999523162842
31
0.0
50
0.0
51
0.0
100
AcDbText
73
0
0
TEXT
5
136
330
36
100
AcDbEntity
8
C-TTL-FRAM
62
256
100
AcDbText
10
15750.0
20
925.000011920929
30
0.0
40
 125.0
1
Ä{ ŹH Äę
41
1.00
7
DimStandard
72
1
11
15750.0
21
925.000011920929
31
0.0
50
0.0
51
0.0
100
AcDbText
73
0
0
TEXT
5
137
330
36
100
AcDbEntity
8
C-TTL-FRAM
62
256
100
AcDbText
10
750.0
20
600.0000238418579
30
0.0
40
 125.0
1
http://trianglelist.home.blog
41
1.00
7
DimStandard
72
0
11
750.0
21
600.0000238418579
31
0.0
50
0.0
51
0.0
100
AcDbText
73
0
0
TEXT
5
138
330
36
100
AcDbEntity
8
C-TTL-FRAM
62
256
100
AcDbText
10
16500.0
20
3424.999952316284
30
0.0
40
 125.0
1
Äsō╣üøüøŹåÉ³ Ģ▄æĢæ┼ŖĘŹHÄ¢
41
1.00
7
DimStandard
72
0
11
16500.0
21
3424.999952316284
31
0.0
50
0.0
51
0.0
100
AcDbText
73
0
0
TEXT
5
139
330
36
100
AcDbEntity
8
C-TTL-FRAM
62
256
100
AcDbText
10
16500.0
20
2924.999952316284
30
0.0
40
 125.0
1
¢╩ ÉŽ ōW ŖJ É}
41
1.00
7
DimStandard
72
0
11
16500.0
21
2924.999952316284
31
0.0
50
0.0
51
0.0
100
AcDbText
73
0
0
TEXT
5
140
330
36
100
AcDbEntity
8
C-TTL-FRAM
62
256
100
AcDbText
10
16500.0
20
2424.999952316284
30
0.0
40
 125.0
1
Äsō╣üøüøŹåÉ³
41
1.00
7
DimStandard
72
0
11
16500.0
21
2424.999952316284
31
0.0
50
0.0
51
0.0
100
AcDbText
73
0
0
TEXT
5
141
330
36
100
AcDbEntity
8
C-TTL-FRAM
62
256
100
AcDbText
10
16500.0
20
1924.9999523162842
30
0.0
40
 125.0
1
2026 öN 6 īÄ 18 ō·
41
1.00
7
DimStandard
72
0
11
16500.0
21
1924.9999523162842
31
0.0
50
0.0
51
0.0
100
AcDbText
73
0
0
TEXT
5
142
330
36
100
AcDbEntity
8
C-TTL-FRAM
62
256
100
AcDbText
10
17000.0
20
1424.9999523162842
30
0.0
40
 125.0
1
1/50 (A3)
41
1.00
7
DimStandard
72
1
11
17000.0
21
1424.9999523162842
31
0.0
50
0.0
51
0.0
100
AcDbText
73
0
0
TEXT
5
143
330
36
100
AcDbEntity
8
C-TTL-FRAM
62
256
100
AcDbText
10
19500.0
20
1424.9999523162842
30
0.0
40
 125.0
1
1/1
41
1.00
7
DimStandard
72
1
11
19500.0
21
1424.9999523162842
31
0.0
50
0.0
51
0.0
100
AcDbText
73
0
0
TEXT
5
144
330
36
100
AcDbEntity
8
C-TTL-FRAM
62
256
100
AcDbText
10
16500.0
20
925.000011920929
30
0.0
40
 125.0
1
üøüøīÜÉ▌ŖöÄ«ē’Äą
41
1.00
7
DimStandard
72
0
11
16500.0
21
925.000011920929
31
0.0
50
0.0
51
0.0
100
AcDbText
73
0
0
TEXT
5
145
330
36
100
AcDbEntity
8
C-TTL-FRAM
62
256
100
AcDbText
10
10500.0
20
13350.000381469727
30
0.0
40
 375.0
1
¢╩ ÉŽ ōW ŖJ É}
41
1.00
7
DimStandard
72
1
11
10500.0
21
13350.000381469727
31
0.0
50
0.0
51
0.0
100
AcDbText
73
1
0
TEXT
5
146
330
36
100
AcDbEntity
8
C-TTL-FRAM
62
256
100
AcDbText
10
10500.0
20
12800.000190734863
30
0.0
40
 375.0
1
Äsō╣üøüøŹåÉ³
41
1.00
7
DimStandard
72
1
11
10500.0
21
12800.000190734863
31
0.0
50
0.0
51
0.0
100
AcDbText
73
1
0
LINE
5
147
330
36
100
AcDbEntity
8
C-TTL-FRAM
100
AcDbLine
370
-3
10
8812.5
20
13300.000190734863
30
0.0
11
12187.5
21
13300.000190734863
31
0.0
62
256
0
LINE
5
148
330
36
100
AcDbEntity
8
C-TTL-FRAM
100
AcDbLine
370
-3
10
8812.5
20
13250.0
30
0.0
11
12187.5
21
13250.0
31
0.0
62
256
0
TEXT
5
149
330
36
100
AcDbEntity
8
C-TTL-FRAM
62
256
100
AcDbText
10
22500.0
20
13500.0
30
0.0
40
 250.0
1

41
1.00
7
DimStandard
72
1
11
22500.0
21
13500.0
31
0.0
50
0.0
51
0.0
100
AcDbText
73
1
0
TEXT
5
150
330
36
100
AcDbEntity
8
C-TTL-FRAM
62
256
100
AcDbText
10
27000.0
20
13500.0
30
0.0
40
 250.0
1
(m)
41
1.00
7
DimStandard
72
1
11
27000.0
21
13500.0
31
0.0
50
0.0
51
0.0
100
AcDbText
73
1
0
TEXT
5
151
330
36
100
AcDbEntity
8
C-TTL-FRAM
62
256
100
AcDbText
10
24000.0
20
13500.0
30
0.0
40
 250.0
1
(m)
41
1.00
7
DimStandard
72
1
11
24000.0
21
13500.0
31
0.0
50
0.0
51
0.0
100
AcDbText
73
1
0
TEXT
5
152
330
36
100
AcDbEntity
8
C-TTL-FRAM
62
256
100
AcDbText
10
25500.0
20
13500.0
30
0.0
40
 250.0
1
(m)
41
1.00
7
DimStandard
72
1
11
25500.0
21
13500.0
31
0.0
50
0.0
51
0.0
100
AcDbText
73
1
0
TEXT
5
153
330
36
100
AcDbEntity
8
C-TTL-FRAM
62
256
100
AcDbText
10
28500.0
20
13500.0
30
0.0
40
 250.0
1
(m2)
41
1.00
7
DimStandard
72
1
11
28500.0
21
13500.0
31
0.0
50
0.0
51
0.0
100
AcDbText
73
1
0
LINE
5
154
330
36
100
AcDbEntity
8
C-TTL-FRAM
100
AcDbLine
370
-3
10
21750.0
20
13497.5004196167
30
0.0
11
29250.0
21
13497.5004196167
31
0.0
62
256
0
LINE
5
155
330
36
100
AcDbEntity
8
C-TTL-FRAM
100
AcDbLine
370
-3
10
21750.0
20
13997.5004196167
30
0.0
11
21750.0
21
13497.5004196167
31
0.0
62
256
0
LINE
5
156
330
36
100
AcDbEntity
8
C-TTL-FRAM
100
AcDbLine
370
-3
10
29250.0
20
13997.5004196167
30
0.0
11
29250.0
21
13497.5004196167
31
0.0
62
256
0
TEXT
5
157
330
36
100
AcDbEntity
8
C-TTL-FRAM
62
256
100
AcDbText
10
22500.0
20
13000.0
30
0.0
40
 250.0
1
1
41
1.00
7
DimStandard
72
1
11
22500.0
21
13000.0
31
0.0
50
0.0
51
0.0
100
AcDbText
73
1
0
TEXT
5
158
330
36
100
AcDbEntity
8
C-TTL-FRAM
62
256
100
AcDbText
10
25500.0
20
13000.0
30
0.0
40
 250.0
1
 2.0
41
1.00
7
DimStandard
72
1
11
25500.0
21
13000.0
31
0.0
50
0.0
51
0.0
100
AcDbText
73
1
0
TEXT
5
159
330
36
100
AcDbEntity
8
C-TTL-FRAM
62
256
100
AcDbText
10
27000.0
20
13000.0
30
0.0
40
 250.0
1
 10.0
41
1.00
7
DimStandard
72
1
11
27000.0
21
13000.0
31
0.0
50
0.0
51
0.0
100
AcDbText
73
1
0
TEXT
5
160
330
36
100
AcDbEntity
8
C-TTL-FRAM
62
256
100
AcDbText
10
24000.0
20
13000.0
30
0.0
40
 250.0
1
 10.0
41
1.00
7
DimStandard
72
1
11
24000.0
21
13000.0
31
0.0
50
0.0
51
0.0
100
AcDbText
73
1
0
TEXT
5
161
330
36
100
AcDbEntity
8
C-TTL-FRAM
62
256
100
AcDbText
10
28500.0
20
13000.0
30
0.0
40
 250.0
1
9.95
41
1.00
7
DimStandard
72
1
11
28500.0
21
13000.0
31
0.0
50
0.0
51
0.0
100
AcDbText
73
1
0
LINE
5
162
330
36
100
AcDbEntity
8
C-TTL-FRAM
100
AcDbLine
370
-3
10
21750.0
20
12997.5004196167
30
0.0
11
29250.0
21
12997.5004196167
31
0.0
62
256
0
LINE
5
163
330
36
100
AcDbEntity
8
C-TTL-FRAM
100
AcDbLine
370
-3
10
21750.0
20
13497.5004196167
30
0.0
11
21750.0
21
12997.5004196167
31
0.0
62
256
0
LINE
5
164
330
36
100
AcDbEntity
8
C-TTL-FRAM
100
AcDbLine
370
-3
10
29250.0
20
13497.5004196167
30
0.0
11
29250.0
21
12997.5004196167
31
0.0
62
256
0
TEXT
5
165
330
36
100
AcDbEntity
8
C-TTL-FRAM
62
256
100
AcDbText
10
22500.0
20
12500.0
30
0.0
40
 250.0
1
2
41
1.00
7
DimStandard
72
1
11
22500.0
21
12500.0
31
0.0
50
0.0
51
0.0
100
AcDbText
73
1
0
TEXT
5
166
330
36
100
AcDbEntity
8
C-TTL-FRAM
62
256
100
AcDbText
10
25500.0
20
12500.0
30
0.0
40
 250.0
1
 1.0
41
1.00
7
DimStandard
72
1
11
25500.0
21
12500.0
31
0.0
50
0.0
51
0.0
100
AcDbText
73
1
0
TEXT
5
167
330
36
100
AcDbEntity
8
C-TTL-FRAM
62
256
100
AcDbText
10
27000.0
20
12500.0
30
0.0
40
 250.0
1
 10.0
41
1.00
7
DimStandard
72
1
11
27000.0
21
12500.0
31
0.0
50
0.0
51
0.0
100
AcDbText
73
1
0
TEXT
5
168
330
36
100
AcDbEntity
8
C-TTL-FRAM
62
256
100
AcDbText
10
24000.0
20
12500.0
30
0.0
40
 250.0
1
 10.0
41
1.00
7
DimStandard
72
1
11
24000.0
21
12500.0
31
0.0
50
0.0
51
0.0
100
AcDbText
73
1
0
TEXT
5
169
330
36
100
AcDbEntity
8
C-TTL-FRAM
62
256
100
AcDbText
10
28500.0
20
12500.0
30
0.0
40
 250.0
1
4.99
41
1.00
7
DimStandard
72
1
11
28500.0
21
12500.0
31
0.0
50
0.0
51
0.0
100
AcDbText
73
1
0
LINE
5
170
330
36
100
AcDbEntity
8
C-TTL-FRAM
100
AcDbLine
370
-3
10
21750.0
20
12497.5004196167
30
0.0
11
29250.0
21
12497.5004196167
31
0.0
62
256
0
LINE
5
171
330
36
100
AcDbEntity
8
C-TTL-FRAM
100
AcDbLine
370
-3
10
21750.0
20
12997.5004196167
30
0.0
11
21750.0
21
12497.5004196167
31
0.0
62
256
0
LINE
5
172
330
36
100
AcDbEntity
8
C-TTL-FRAM
100
AcDbLine
370
-3
10
29250.0
20
12997.5004196167
30
0.0
11
29250.0
21
12497.5004196167
31
0.0
62
256
0
TEXT
5
173
330
36
100
AcDbEntity
8
C-TTL-FRAM
62
256
100
AcDbText
10
22500.0
20
12000.0
30
0.0
40
 250.0
1
 Å¼īv(1)
41
1.00
7
DimStandard
72
1
11
22500.0
21
12000.0
31
0.0
50
0.0
51
0.0
100
AcDbText
73
1
0
TEXT
5
174
330
36
100
AcDbEntity
8
C-TTL-FRAM
62
256
100
AcDbText
10
28500.0
20
12000.0
30
0.0
40
 250.0
1
14.94
41
1.00
7
DimStandard
72
1
11
28500.0
21
12000.0
31
0.0
50
0.0
51
0.0
100
AcDbText
73
1
0
LINE
5
175
330
36
100
AcDbEntity
8
C-TTL-FRAM
100
AcDbLine
370
-3
10
21750.0
20
11997.5004196167
30
0.0
11
29250.0
21
11997.5004196167
31
0.0
62
256
0
LINE
5
176
330
36
100
AcDbEntity
8
C-TTL-FRAM
100
AcDbLine
370
-3
10
21750.0
20
12497.5004196167
30
0.0
11
21750.0
21
11997.5004196167
31
0.0
62
256
0
LINE
5
177
330
36
100
AcDbEntity
8
C-TTL-FRAM
100
AcDbLine
370
-3
10
29250.0
20
12497.5004196167
30
0.0
11
29250.0
21
11997.5004196167
31
0.0
62
256
0
TEXT
5
178
330
36
100
AcDbEntity
8
C-TTL-FRAM
62
256
100
AcDbText
10
22500.0
20
11000.0
30
0.0
40
 250.0
1
Źćīv
41
1.00
7
DimStandard
72
1
11
22500.0
21
11000.0
31
0.0
50
0.0
51
0.0
100
AcDbText
73
1
0
TEXT
5
179
330
36
100
AcDbEntity
8
C-TTL-FRAM
62
256
100
AcDbText
10
28500.0
20
11000.0
30
0.0
40
 250.0
1
14.94
41
1.00
7
DimStandard
72
1
11
28500.0
21
11000.0
31
0.0
50
0.0
51
0.0
100
AcDbText
73
1
0
LINE
5
180
330
36
100
AcDbEntity
8
C-TTL-FRAM
100
AcDbLine
370
-3
10
21750.0
20
13997.5004196167
30
0.0
11
29250.0
21
13997.5004196167
31
0.0
62
256
0
LINE
5
181
330
36
100
AcDbEntity
8
C-TTL-FRAM
100
AcDbLine
370
-3
10
21750.0
20
10997.5004196167
30
0.0
11
29250.0
21
10997.5004196167
31
0.0
62
256
0
LINE
5
182
330
36
100
AcDbEntity
8
C-TTL-FRAM
100
AcDbLine
370
-3
10
21750.0
20
11997.5004196167
30
0.0
11
21750.0
21
10997.5004196167
31
0.0
62
256
0
LINE
5
183
330
36
100
AcDbEntity
8
C-TTL-FRAM
100
AcDbLine
370
-3
10
29250.0
20
11997.5004196167
30
0.0
11
29250.0
21
10997.5004196167
31
0.0
62
256
  0
VIEWPORT
  5
184
330
32
100
AcDbEntity
 67
1
  8
VIEWPORTS
100
AcDbViewport
 10
10500.0
 20
7425.0
 30
0.0
 40
23100.0
 41
16335.0
 68
1
 69
1
 12
10500.0
 22
7425.0
 13
0.0
 23
0.0
 14
10.0
 24
10.0
 15
10.0
 25
10.0
 16
0.0
 26
0.0
 36
1.0
 17
0.0
 27
0.0
 37
0.0
 42
50.0
 43
0.0
 44
0.0
 45
16335.0
 50
0.0
 51
0.0
 72
100
 90
557088
  1

281
0
 71
0
 74
0
110
0.0
120
0.0
130
0.0
111
1.0
121
0.0
131
0.0
112
0.0
122
1.0
132
0.0
 79
0
146
0.0
  0
VIEWPORT
  5
185
330
32
100
AcDbEntity
 67
1
  8
VIEWPORTS
100
AcDbViewport
 10
210.0
 20
148.5
 30
0.0
 40
420.0
 41
297.0
 68
2
 69
2
 12
10500.0
 22
7425.0
 13
0.0
 23
0.0
 14
10.0
 24
10.0
 15
10.0
 25
10.0
 16
0.0
 26
0.0
 36
1.0
 17
0.0
 27
0.0
 37
0.0
 42
50.0
 43
0.0
 44
0.0
 45
14850.0
 50
0.0
 51
0.0
 72
100
 90
0
  1

281
0
 71
0
 74
0
110
0.0
120
0.0
130
0.0
111
1.0
121
0.0
131
0.0
112
0.0
122
1.0
132
0.0
 79
0
146
0.0
0
ENDSEC
  0
SECTION
  2
OBJECTS
  0
DICTIONARY
  5
C
330
0
100
AcDbDictionary
281
1
  3
ACAD_COLOR
350
186
  3
ACAD_GROUP
350
187
  3
ACAD_LAYOUT
350
188
  3
ACAD_MATERIAL
350
189
  3
ACAD_MLINESTYLE
350
190
  3
ACAD_PLOTSETTINGS
350
191
  3
ACAD_PLOTSTYLENAME
350
192
  3
ACAD_TABLESTYLE
350
193
  3
ACAD_VISUALSTYLE
350
194
  3
AcDbVariableDictionary
350
195
  3
DWGPROPS
350
196
  0
DICTIONARY
  5
186
102
{ACAD_REACTORS
330
C
102
}
330
C
100
AcDbDictionary
281
1
  0
DICTIONARY
  5
187
102
{ACAD_REACTORS
330
C
102
}
330
C
100
AcDbDictionary
281
1
  0
DICTIONARY
  5
188
102
{ACAD_REACTORS
330
C
102
}
330
C
100
AcDbDictionary
281
1
  3
Model
350
199
  3
Layout1
350
198
  0
DICTIONARY
  5
189
102
{ACAD_REACTORS
330
C
102
}
330
C
100
AcDbDictionary
281
1
  3
ByBlock
350
200
  3
ByLayer
350
201
  3
Global
350
202
  0
DICTIONARY
  5
190
102
{ACAD_REACTORS
330
C
102
}
330
C
100
AcDbDictionary
281
1
  0
DICTIONARY
  5
191
102
{ACAD_REACTORS
330
C
102
}
330
C
100
AcDbDictionary
281
1
  3
A3_1_50
350
197
  0
ACDBDICTIONARYWDFLT
  5
192
102
{ACAD_REACTORS
330
C
102
}
330
C
100
AcDbDictionary
281
1
  3
Normal
350
208
100
AcDbDictionaryWithDefault
340
208
  0
DICTIONARY
  5
193
102
{ACAD_REACTORS
330
C
102
}
330
C
100
AcDbDictionary
281
1
  0
DICTIONARY
  5
194
102
{ACAD_REACTORS
330
C
102
}
330
C
100
AcDbDictionary
281
1
  3
2dWireframe
350
203
  3
3D Hidden
350
205
  3
3dWireframe
350
204
  3
Conceptual
350
207
  3
Realistic
350
206
  0
DICTIONARY
  5
195
102
{ACAD_REACTORS
330
C
102
}
330
C
100
AcDbDictionary
281
1
  0
DICTIONARY
  5
196
102
{ACAD_REACTORS
330
C
102
}
330
C
100
AcDbDictionary
281
1
  0
MATERIAL
  5
200
102
{ACAD_REACTORS
330
189
102
}
330
189
100
AcDbMaterial
  1
ByBlock
 72
1
 94
127
282
1
  0
MATERIAL
  5
201
102
{ACAD_REACTORS
330
189
102
}
330
189
100
AcDbMaterial
  1
ByLayer
 72
1
 94
127
282
1
  0
MATERIAL
  5
202
102
{ACAD_REACTORS
330
189
102
}
330
189
100
AcDbMaterial
  1
Global
 72
1
 94
127
282
1
  0
VISUALSTYLE
  5
203
102
{ACAD_REACTORS
330
194
102
}
330
194
100
AcDbVisualStyle
  2
2dWireframe
 70
6
177
2
291
0
 71
2
176
1
293
1
 73
0
173
0
290
0
174
0
292
0
175
1
  0
VISUALSTYLE
  5
204
102
{ACAD_REACTORS
330
194
102
}
330
194
100
AcDbVisualStyle
  2
3dWireframe
 70
4
177
2
291
0
 71
2
176
1
293
1
 73
0
173
0
290
0
174
0
292
0
175
1
  0
VISUALSTYLE
  5
205
102
{ACAD_REACTORS
330
194
102
}
330
194
100
AcDbVisualStyle
  2
3D Hidden
 70
6
177
2
291
0
 71
2
176
1
293
1
 73
0
173
0
290
0
174
0
292
0
175
1
  0
VISUALSTYLE
  5
206
102
{ACAD_REACTORS
330
194
102
}
330
194
100
AcDbVisualStyle
  2
Realistic
 70
8
177
2
291
0
 71
2
176
1
293
1
 73
0
173
0
290
0
174
0
292
0
175
1
  0
VISUALSTYLE
  5
207
102
{ACAD_REACTORS
330
194
102
}
330
194
100
AcDbVisualStyle
  2
Conceptual
 70
9
177
2
291
0
 71
2
176
1
293
1
 73
0
173
0
290
0
174
0
292
0
175
1
  0
PLOTSTYLE
  5
208
102
{ACAD_REACTORS
330
192
102
}
330
192
100
AcDbPlotStyle
  1
Normal
 70
0
290
1
  0
PLOTSETTINGS
  5
197
330
191
100
AcDbPlotSettings
  1
A3_1_50
  2
none_device
  4
ISO_A3_(297.00_x_420.00_MM)
  6

 40
0.0
 41
0.0
 42
0.0
 43
0.0
 44
297.0
 45
420.0
 46
0.0
 47
0.0
 48
0.0
 49
0.0
140
0.0
141
0.0
142
1.0
143
50.0
 70
676
 72
1
 73
1
 74
5
  7

 75
16
 76
0
 77
2
 78
300
147
1.0
148
0.0
149
0.0
  0
LAYOUT
  5
199
330
188
100
AcDbPlotSettings
  1

  2
none_device
  4
ISO_A3_(297.00_x_420.00_MM)
  6

 40
0.0
 41
0.0
 42
0.0
 43
0.0
 44
297.0
 45
420.0
 46
0.0
 47
0.0
 48
0.0
 49
0.0
140
0.0
141
0.0
142
1.0
143
50.0
 70
1712
 72
1
 73
1
 74
0
  7

 75
0
 76
0
 77
2
 78
300
147
1.0
148
0.0
149
0.0
100
AcDbLayout
  1
Model
 70
1
 71
0
 10
0
 20
0
 11
21000.0
 21
14850.0
 12
0
 22
0
 32
0
 14
0
 24
0
 34
0
 15
21000.0
 25
14850.0
 35
0
146
0
 13
0
 23
0
 33
0
 16
1
 26
0
 36
0
 17
0
 27
1
 37
0
 76
0
330
36
  0
LAYOUT
  5
198
330
188
100
AcDbPlotSettings
  1

  2
none_device
  4
ISO_A3_(297.00_x_420.00_MM)
  6

 40
0.0
 41
0.0
 42
0.0
 43
0.0
 44
297.0
 45
420.0
 46
0.0
 47
0.0
 48
0.0
 49
0.0
140
0.0
141
0.0
142
1.0
143
50.0
 70
688
 72
1
 73
1
 74
5
  7

 75
16
 76
0
 77
2
 78
300
147
1.0
148
0.0
149
0.0
100
AcDbLayout
  1
Layout1
 70
1
 71
1
 10
0
 20
0
 11
420.0
 21
297.0
 12
0
 22
0
 32
0
 14
0
 24
0
 34
0
 15
420.0
 25
297.0
 35
0
146
0
 13
0
 23
0
 33
0
 16
1
 26
0
 36
0
 17
0
 27
1
 37
0
 76
0
330
32
  0
ENDSEC
  0
EOF
